<mxfile host="drawio-plugin" modified="2022-12-27T07:21:45.807Z" agent="5.0 (Macintosh; Intel Mac OS X 10_15_7) AppleWebKit/537.36 (KHTML, like Gecko) Chrome/104.0.5112.102 Safari/537.36" etag="EvucnmWVmSXch_IYRIEj" version="20.5.3" type="embed"><diagram id="ycGnjYmzJwle-k11gkEK" name="第 1 页"><mxGraphModel dx="1612" dy="1532" grid="1" gridSize="10" guides="1" tooltips="1" connect="1" arrows="1" fold="1" page="0" pageScale="1" pageWidth="827" pageHeight="1169" background="none" math="0" shadow="0"><root><mxCell id="0"/><mxCell id="1" parent="0"/><object label="%nodeDesc%" placeholders="1" nodeDesc="新增账号" shapeType="NODE" id="66"><mxCell style="rounded=0;whiteSpace=wrap;html=1;shadow=0;glass=0;sketch=0;fillStyle=auto;strokeWidth=1;metaEdit=1;resizable=1;rotatable=0;snapToPoint=0;connectable=1;absoluteArcSize=0;noLabel=0;labelPadding=0;allowArrows=1;recursiveResize=1;expand=1;editable=1;movable=1;deletable=1;fixDash=0;collapsible=0;portConstraintRotation=0;points=[[0,0.5,0,0,0],[1,0.5,0,0,0]];backgroundOutline=0;resizeHeight=1;resizeWidth=1;" vertex="1" parent="1"><mxGeometry x="-677.5" y="-940" width="135" height="40" as="geometry"/></mxCell></object><object label="《%shapeType%》&#10;%className%&#10;%classDesc%" placeholders="1" shapeType="COMMAND" classPackage="create" classDesc="创建账号" className="AccountCreate" cmdType="ADD" id="67"><mxCell style="swimlane;fontStyle=1;align=center;verticalAlign=top;childLayout=stackLayout;horizontal=1;startSize=60;horizontalStack=0;resizeParent=1;resizeParentMax=0;resizeLast=0;collapsible=1;marginBottom=0;fixDash=1;container=1;enumerate=0;treeMoving=1;swimlaneBody=1;fillOpacity=100;strokeOpacity=100;overflow=visible;rounded=0;swimlaneLine=1;sketch=0;shadow=0;arcSize=9;strokeWidth=1;fillStyle=auto;swimlaneFillColor=default;metaEdit=1;labelPadding=0;cloneable=1;separatorColor=none;swimlaneHead=1;noLabel=0;direction=east;portConstraint=none;portConstraintRotation=0;rotation=0;connectable=0;snapToPoint=0;perimeter=rectanglePerimeter;dropTarget=1;expand=1;part=1;backgroundOutline=1;movableLabel=1;autosize=1;fixedWidth=1;resizable=1;resizeWidth=0;resizeHeight=0;rotatable=1;treeFolding=0;pointerEvents=1;moveCells=0;comic=0;enumerateValue=123;allowArrows=0;fontFamily=Helvetica;fontSize=13;fillColor=#fff2cc;strokeColor=#d6b656;" vertex="1" parent="1"><mxGeometry x="-785" y="-870" width="350" height="242" as="geometry"><mxRectangle x="-950" y="80" width="350" height="70" as="alternateBounds"/></mxGeometry></mxCell></object><object label="%fieldModify% %fieldName%: %fieldType%    #%fieldDesc%" placeholders="1" shapeType="FIELD" fieldName="userName" fieldType="String" fieldModify="-" fieldDesc="用户名" id="68"><mxCell style="text;strokeColor=none;fillColor=none;align=left;verticalAlign=top;spacingLeft=4;spacingRight=4;overflow=hidden;rotatable=0;points=[];portConstraint=none;metaEdit=1;cloneable=1;rotation=0;connectable=1;container=0;dropTarget=1;imageAspect=1;absoluteArcSize=0;portConstraintRotation=0;snapToPoint=0;fixDash=0;pointerEvents=0;enumerate=0;resizeHeight=1;resizeWidth=1;autosize=1;part=1;movable=1;rounded=0;fontFamily=Helvetica;fontSize=13;fontColor=default;" vertex="1" parent="67"><mxGeometry y="60" width="350" height="24" as="geometry"/></mxCell></object><object label="%fieldModify% %fieldName%: %fieldType%    #%fieldDesc%" placeholders="1" shapeType="FIELD" fieldName="accountNo" fieldType="String" fieldModify="-" fieldDesc="账号" id="69"><mxCell style="text;strokeColor=none;fillColor=none;align=left;verticalAlign=top;spacingLeft=4;spacingRight=4;overflow=hidden;rotatable=0;points=[];portConstraint=none;metaEdit=1;cloneable=1;rotation=0;connectable=1;container=0;dropTarget=1;imageAspect=1;absoluteArcSize=0;portConstraintRotation=0;snapToPoint=0;fixDash=0;pointerEvents=0;enumerate=0;resizeHeight=1;resizeWidth=1;autosize=1;part=1;movable=1;rounded=0;fontFamily=Helvetica;fontSize=13;fontColor=default;" vertex="1" parent="67"><mxGeometry y="84" width="350" height="24" as="geometry"/></mxCell></object><object label="%fieldModify% %fieldName%: %fieldType%    #%fieldDesc%" placeholders="1" shapeType="FIELD" fieldName="password" fieldType="String" fieldModify="-" fieldDesc="密码" id="70"><mxCell style="text;strokeColor=none;fillColor=none;align=left;verticalAlign=top;spacingLeft=4;spacingRight=4;overflow=hidden;rotatable=0;points=[];portConstraint=none;metaEdit=1;cloneable=1;rotation=0;connectable=1;container=0;dropTarget=1;imageAspect=1;absoluteArcSize=0;portConstraintRotation=0;snapToPoint=0;fixDash=0;pointerEvents=0;enumerate=0;resizeHeight=1;resizeWidth=1;autosize=1;part=1;movable=1;rounded=0;fontFamily=Helvetica;fontSize=13;fontColor=default;" vertex="1" parent="67"><mxGeometry y="108" width="350" height="24" as="geometry"/></mxCell></object><object label="《%shapeType%》" placeholders="1" shapeType="RULE_LIST" id="71"><mxCell style="swimlane;fontStyle=1;align=center;verticalAlign=top;childLayout=stackLayout;horizontal=1;startSize=28;horizontalStack=0;resizeParent=1;resizeParentMax=0;resizeLast=0;collapsible=1;marginBottom=0;fixDash=1;container=1;enumerate=0;treeMoving=1;swimlaneBody=1;fillOpacity=100;strokeOpacity=100;overflow=visible;rounded=0;swimlaneLine=1;sketch=0;shadow=0;arcSize=19;strokeWidth=1;fillStyle=auto;swimlaneFillColor=none;metaEdit=1;labelPadding=0;cloneable=1;separatorColor=none;swimlaneHead=1;noLabel=0;direction=east;portConstraint=none;portConstraintRotation=0;rotation=0;connectable=0;snapToPoint=0;perimeter=rectanglePerimeter;dropTarget=1;expand=1;part=1;backgroundOutline=1;movableLabel=1;autosize=1;fixedWidth=0;resizable=1;resizeWidth=0;resizeHeight=0;rotatable=1;treeFolding=0;pointerEvents=1;moveCells=0;comic=0;enumerateValue=123;allowArrows=0;fontFamily=Helvetica;fontSize=13;glass=0;editable=1;movable=1;deletable=1;fillColor=none;strokeColor=#b85450;gradientColor=none;" vertex="1" parent="67"><mxGeometry y="132" width="350" height="58" as="geometry"><mxRectangle y="256" width="420" height="50" as="alternateBounds"/></mxGeometry></mxCell></object><object label="rule: %ruleDesc%" placeholders="1" shapeType="RULE_ITEM" ruleDesc="邮箱为用户唯一标识，同一个邮箱不可重复注册" id="72"><mxCell style="text;strokeColor=none;fillColor=none;align=left;verticalAlign=top;spacingLeft=4;spacingRight=4;overflow=hidden;rotatable=0;points=[];portConstraint=none;metaEdit=1;cloneable=1;rotation=0;connectable=1;container=0;dropTarget=1;imageAspect=1;absoluteArcSize=0;portConstraintRotation=0;snapToPoint=0;fixDash=0;pointerEvents=0;enumerate=0;resizeHeight=1;resizeWidth=1;autosize=1;part=1;movable=1;rounded=0;fontFamily=Helvetica;fontSize=13;fontColor=default;" vertex="1" parent="71"><mxGeometry y="28" width="350" height="30" as="geometry"/></mxCell></object><object label="《%shapeType%》" placeholders="1" shapeType="EVENT" id="73"><mxCell style="swimlane;fontStyle=1;align=center;verticalAlign=top;childLayout=stackLayout;horizontal=1;startSize=28;horizontalStack=0;resizeParent=1;resizeParentMax=0;resizeLast=0;collapsible=1;marginBottom=0;fixDash=1;container=1;enumerate=0;treeMoving=1;swimlaneBody=1;fillOpacity=100;strokeOpacity=100;overflow=visible;rounded=0;swimlaneLine=1;sketch=0;shadow=0;arcSize=19;strokeWidth=1;fillStyle=auto;swimlaneFillColor=none;metaEdit=1;labelPadding=0;cloneable=1;separatorColor=none;swimlaneHead=1;noLabel=0;direction=east;portConstraint=none;portConstraintRotation=0;rotation=0;connectable=0;snapToPoint=0;perimeter=rectanglePerimeter;dropTarget=1;expand=1;part=1;backgroundOutline=1;movableLabel=1;autosize=1;fixedWidth=0;resizable=1;resizeWidth=0;resizeHeight=0;rotatable=1;treeFolding=0;pointerEvents=1;moveCells=0;comic=0;enumerateValue=123;allowArrows=0;fontFamily=Helvetica;fontSize=13;glass=0;editable=1;movable=1;deletable=1;fillColor=none;strokeColor=#6c8ebf;gradientColor=#7ea6e0;" vertex="1" parent="67"><mxGeometry y="190" width="350" height="52" as="geometry"><mxRectangle y="204" width="420" height="50" as="alternateBounds"/></mxGeometry></mxCell></object><object label="%fieldModify% %fieldName%: %fieldType%    #%fieldDesc%" placeholders="1" shapeType="FIELD" fieldName="id" fieldType="Long" fieldModify="-" fieldDesc="主键" id="74"><mxCell style="text;strokeColor=none;fillColor=none;align=left;verticalAlign=top;spacingLeft=4;spacingRight=4;overflow=hidden;rotatable=0;points=[];portConstraint=none;metaEdit=1;cloneable=1;rotation=0;connectable=1;container=0;dropTarget=1;imageAspect=1;absoluteArcSize=0;portConstraintRotation=0;snapToPoint=0;fixDash=0;pointerEvents=0;enumerate=0;resizeHeight=1;resizeWidth=1;autosize=1;part=1;movable=1;rounded=0;fontFamily=Helvetica;fontSize=13;fontColor=default;" vertex="1" parent="73"><mxGeometry y="28" width="350" height="24" as="geometry"/></mxCell></object><object label="%nodeDesc%" placeholders="1" nodeDesc="账号登录" shapeType="NODE" id="75"><mxCell style="rounded=0;whiteSpace=wrap;html=1;shadow=0;glass=0;sketch=0;fillStyle=auto;strokeWidth=1;metaEdit=1;resizable=1;rotatable=0;snapToPoint=0;connectable=1;absoluteArcSize=0;noLabel=0;labelPadding=0;allowArrows=1;recursiveResize=1;expand=1;editable=1;movable=1;deletable=1;fixDash=0;collapsible=0;portConstraintRotation=0;points=[[0,0.5,0,0,0],[1,0.5,0,0,0]];backgroundOutline=0;resizeHeight=1;resizeWidth=1;" vertex="1" parent="1"><mxGeometry x="876.38" y="-940" width="135" height="40" as="geometry"/></mxCell></object><object label="%nodeDesc%" placeholders="1" nodeDesc="更新账号基本信息" shapeType="NODE" id="76"><mxCell style="rounded=0;whiteSpace=wrap;html=1;shadow=0;glass=0;sketch=0;fillStyle=auto;strokeWidth=1;metaEdit=1;resizable=1;rotatable=0;snapToPoint=0;connectable=1;absoluteArcSize=0;noLabel=0;labelPadding=0;allowArrows=1;recursiveResize=1;expand=1;editable=1;movable=1;deletable=1;fixDash=0;collapsible=0;portConstraintRotation=0;points=[[0,0.5,0,0,0],[1,0.5,0,0,0]];backgroundOutline=0;resizeHeight=1;resizeWidth=1;" vertex="1" parent="1"><mxGeometry x="-270" y="-940" width="135" height="40" as="geometry"/></mxCell></object><object label="《%shapeType%》&#10;%className%&#10;%classDesc%" placeholders="1" shapeType="COMMAND" classPackage="update" classDesc="更新账号基本信息" className="AccountUpdate" cmdType="UPDATE" id="77"><mxCell style="swimlane;fontStyle=1;align=center;verticalAlign=top;childLayout=stackLayout;horizontal=1;startSize=60;horizontalStack=0;resizeParent=1;resizeParentMax=0;resizeLast=0;collapsible=1;marginBottom=0;fixDash=1;container=1;enumerate=0;treeMoving=1;swimlaneBody=1;fillOpacity=100;strokeOpacity=100;overflow=visible;rounded=0;swimlaneLine=1;sketch=0;shadow=0;arcSize=9;strokeWidth=1;fillStyle=auto;swimlaneFillColor=default;metaEdit=1;labelPadding=0;cloneable=1;separatorColor=none;swimlaneHead=1;noLabel=0;direction=east;portConstraint=none;portConstraintRotation=0;rotation=0;connectable=0;snapToPoint=0;perimeter=rectanglePerimeter;dropTarget=1;expand=1;part=1;backgroundOutline=1;movableLabel=1;autosize=1;fixedWidth=1;resizable=1;resizeWidth=0;resizeHeight=0;rotatable=1;treeFolding=0;pointerEvents=1;moveCells=0;comic=0;enumerateValue=123;allowArrows=0;fontFamily=Helvetica;fontSize=13;fillColor=#fff2cc;strokeColor=#d6b656;" vertex="1" parent="1"><mxGeometry x="-380" y="-870" width="350" height="266" as="geometry"><mxRectangle x="-950" y="80" width="350" height="70" as="alternateBounds"/></mxGeometry></mxCell></object><object label="%fieldModify% %fieldName%: %fieldType%    #%fieldDesc%" placeholders="1" shapeType="FIELD" fieldName="id" fieldType="Long" fieldModify="-" fieldDesc="主键" id="78"><mxCell style="text;strokeColor=none;fillColor=none;align=left;verticalAlign=top;spacingLeft=4;spacingRight=4;overflow=hidden;rotatable=0;points=[];portConstraint=none;metaEdit=1;cloneable=1;rotation=0;connectable=1;container=0;dropTarget=1;imageAspect=1;absoluteArcSize=0;portConstraintRotation=0;snapToPoint=0;fixDash=0;pointerEvents=0;enumerate=0;resizeHeight=1;resizeWidth=1;autosize=1;part=1;movable=1;rounded=0;fontFamily=Helvetica;fontSize=13;fontColor=default;" vertex="1" parent="77"><mxGeometry y="60" width="350" height="24" as="geometry"/></mxCell></object><object label="%fieldModify% %fieldName%: %fieldType%    #%fieldDesc%" placeholders="1" shapeType="FIELD" fieldName="userName" fieldType="String" fieldModify="-" fieldDesc="用户名" id="79"><mxCell style="text;strokeColor=none;fillColor=none;align=left;verticalAlign=top;spacingLeft=4;spacingRight=4;overflow=hidden;rotatable=0;points=[];portConstraint=none;metaEdit=1;cloneable=1;rotation=0;connectable=1;container=0;dropTarget=1;imageAspect=1;absoluteArcSize=0;portConstraintRotation=0;snapToPoint=0;fixDash=0;pointerEvents=0;enumerate=0;resizeHeight=1;resizeWidth=1;autosize=1;part=1;movable=1;rounded=0;fontFamily=Helvetica;fontSize=13;fontColor=default;" vertex="1" parent="77"><mxGeometry y="84" width="350" height="24" as="geometry"/></mxCell></object><object label="%fieldModify% %fieldName%: %fieldType%    #%fieldDesc%" placeholders="1" shapeType="FIELD" fieldName="position" fieldType="String" fieldModify="-" fieldDesc="职位" id="80"><mxCell style="text;strokeColor=none;fillColor=none;align=left;verticalAlign=top;spacingLeft=4;spacingRight=4;overflow=hidden;rotatable=0;points=[];portConstraint=none;metaEdit=1;cloneable=1;rotation=0;connectable=1;container=0;dropTarget=1;imageAspect=1;absoluteArcSize=0;portConstraintRotation=0;snapToPoint=0;fixDash=0;pointerEvents=0;enumerate=0;resizeHeight=1;resizeWidth=1;autosize=1;part=1;movable=1;rounded=0;fontFamily=Helvetica;fontSize=13;fontColor=default;" vertex="1" parent="77"><mxGeometry y="108" width="350" height="24" as="geometry"/></mxCell></object><object label="%fieldModify% %fieldName%: %fieldType%    #%fieldDesc%" placeholders="1" shapeType="FIELD" fieldName="description" fieldType="String" fieldModify="-" fieldDesc="描述" id="81"><mxCell style="text;strokeColor=none;fillColor=none;align=left;verticalAlign=top;spacingLeft=4;spacingRight=4;overflow=hidden;rotatable=0;points=[];portConstraint=none;metaEdit=1;cloneable=1;rotation=0;connectable=1;container=0;dropTarget=1;imageAspect=1;absoluteArcSize=0;portConstraintRotation=0;snapToPoint=0;fixDash=0;pointerEvents=0;enumerate=0;resizeHeight=1;resizeWidth=1;autosize=1;part=1;movable=1;rounded=0;fontFamily=Helvetica;fontSize=13;fontColor=default;" vertex="1" parent="77"><mxGeometry y="132" width="350" height="24" as="geometry"/></mxCell></object><object label="《%shapeType%》" placeholders="1" shapeType="RULE_LIST" id="82"><mxCell style="swimlane;fontStyle=1;align=center;verticalAlign=top;childLayout=stackLayout;horizontal=1;startSize=28;horizontalStack=0;resizeParent=1;resizeParentMax=0;resizeLast=0;collapsible=1;marginBottom=0;fixDash=1;container=1;enumerate=0;treeMoving=1;swimlaneBody=1;fillOpacity=100;strokeOpacity=100;overflow=visible;rounded=0;swimlaneLine=1;sketch=0;shadow=0;arcSize=19;strokeWidth=1;fillStyle=auto;swimlaneFillColor=none;metaEdit=1;labelPadding=0;cloneable=1;separatorColor=none;swimlaneHead=1;noLabel=0;direction=east;portConstraint=none;portConstraintRotation=0;rotation=0;connectable=0;snapToPoint=0;perimeter=rectanglePerimeter;dropTarget=1;expand=1;part=1;backgroundOutline=1;movableLabel=1;autosize=1;fixedWidth=0;resizable=1;resizeWidth=0;resizeHeight=0;rotatable=1;treeFolding=0;pointerEvents=1;moveCells=0;comic=0;enumerateValue=123;allowArrows=0;fontFamily=Helvetica;fontSize=13;glass=0;editable=1;movable=1;deletable=1;fillColor=none;strokeColor=#b85450;gradientColor=none;" vertex="1" parent="77"><mxGeometry y="156" width="350" height="58" as="geometry"><mxRectangle y="256" width="420" height="50" as="alternateBounds"/></mxGeometry></mxCell></object><object label="《%shapeType%》" placeholders="1" shapeType="EVENT" id="83"><mxCell style="swimlane;fontStyle=1;align=center;verticalAlign=top;childLayout=stackLayout;horizontal=1;startSize=28;horizontalStack=0;resizeParent=1;resizeParentMax=0;resizeLast=0;collapsible=1;marginBottom=0;fixDash=1;container=1;enumerate=0;treeMoving=1;swimlaneBody=1;fillOpacity=100;strokeOpacity=100;overflow=visible;rounded=0;swimlaneLine=1;sketch=0;shadow=0;arcSize=19;strokeWidth=1;fillStyle=auto;swimlaneFillColor=none;metaEdit=1;labelPadding=0;cloneable=1;separatorColor=none;swimlaneHead=1;noLabel=0;direction=east;portConstraint=none;portConstraintRotation=0;rotation=0;connectable=0;snapToPoint=0;perimeter=rectanglePerimeter;dropTarget=1;expand=1;part=1;backgroundOutline=1;movableLabel=1;autosize=1;fixedWidth=0;resizable=1;resizeWidth=0;resizeHeight=0;rotatable=1;treeFolding=0;pointerEvents=1;moveCells=0;comic=0;enumerateValue=123;allowArrows=0;fontFamily=Helvetica;fontSize=13;glass=0;editable=1;movable=1;deletable=1;fillColor=none;strokeColor=#6c8ebf;gradientColor=#7ea6e0;" vertex="1" parent="77"><mxGeometry y="214" width="350" height="52" as="geometry"><mxRectangle y="204" width="420" height="50" as="alternateBounds"/></mxGeometry></mxCell></object><object label="%nodeDesc%" placeholders="1" nodeDesc="重置密码" shapeType="NODE" id="84"><mxCell style="rounded=0;whiteSpace=wrap;html=1;shadow=0;glass=0;sketch=0;fillStyle=auto;strokeWidth=1;metaEdit=1;resizable=1;rotatable=0;snapToPoint=0;connectable=1;absoluteArcSize=0;noLabel=0;labelPadding=0;allowArrows=1;recursiveResize=1;expand=1;editable=1;movable=1;deletable=1;fixDash=0;collapsible=0;portConstraintRotation=0;points=[[0,0.5,0,0,0],[1,0.5,0,0,0]];backgroundOutline=0;resizeHeight=1;resizeWidth=1;" vertex="1" parent="1"><mxGeometry x="1250" y="-940" width="135" height="40" as="geometry"/></mxCell></object><object label="%nodeDesc%" placeholders="1" nodeDesc="用户管理-分页查询账号信息" shapeType="NODE" id="85"><mxCell style="rounded=0;whiteSpace=wrap;html=1;shadow=0;glass=0;sketch=0;fillStyle=auto;strokeWidth=1;metaEdit=1;resizable=1;rotatable=0;snapToPoint=0;connectable=1;absoluteArcSize=0;noLabel=0;labelPadding=0;allowArrows=1;recursiveResize=1;expand=1;editable=1;movable=1;deletable=1;fixDash=0;collapsible=0;portConstraintRotation=0;points=[[0,0.5,0,0,0],[1,0.5,0,0,0]];backgroundOutline=0;resizeHeight=1;resizeWidth=1;" vertex="1" parent="1"><mxGeometry x="-400" y="-230" width="210" height="40" as="geometry"/></mxCell></object><object label="《%shapeType%》&#10;%className%&#10;%classDesc%&#10;%queryResultType%" placeholders="1" shapeType="PAGE_QUERY" className="AccountPageQuery" classDesc="分页查询用户账号信息" queryResultType="AccountDTO" id="86"><mxCell style="swimlane;fontStyle=1;align=center;verticalAlign=top;childLayout=stackLayout;horizontal=1;startSize=80;horizontalStack=0;resizeParent=1;resizeParentMax=0;resizeLast=0;collapsible=1;marginBottom=0;fixDash=1;container=1;enumerate=0;treeMoving=1;swimlaneBody=1;fillOpacity=100;strokeOpacity=100;overflow=visible;rounded=0;swimlaneLine=1;sketch=0;shadow=0;arcSize=3;strokeWidth=1;fillStyle=auto;swimlaneFillColor=none;metaEdit=1;labelPadding=0;cloneable=1;separatorColor=none;swimlaneHead=1;noLabel=0;direction=east;portConstraint=none;portConstraintRotation=0;rotation=0;connectable=1;snapToPoint=0;perimeter=rectanglePerimeter;dropTarget=1;expand=1;part=1;backgroundOutline=1;movableLabel=1;autosize=1;fixedWidth=0;resizable=1;resizeWidth=0;resizeHeight=0;rotatable=1;treeFolding=0;pointerEvents=1;moveCells=0;comic=0;enumerateValue=123;allowArrows=0;fontFamily=Helvetica;fontSize=13;fillColor=#fff2cc;strokeColor=#d6b656;" vertex="1" parent="1"><mxGeometry x="-440" y="-130" width="317.24999999999955" height="104" as="geometry"><mxRectangle y="28" width="250" height="50" as="alternateBounds"/></mxGeometry></mxCell></object><object label="%fieldModify% %fieldName%: %fieldType%    #%fieldDesc%" placeholders="1" shapeType="FIELD" fieldName="userName" fieldType="String" fieldModify="-" fieldDesc="用户名" id="87"><mxCell style="text;strokeColor=none;fillColor=none;align=left;verticalAlign=top;spacingLeft=4;spacingRight=4;overflow=hidden;rotatable=0;points=[];portConstraint=none;metaEdit=1;cloneable=1;rotation=0;connectable=1;container=0;dropTarget=1;imageAspect=1;absoluteArcSize=0;portConstraintRotation=0;snapToPoint=0;fixDash=0;pointerEvents=0;enumerate=0;resizeHeight=1;resizeWidth=1;autosize=1;part=1;movable=1;rounded=0;fontFamily=Helvetica;fontSize=13;fontColor=default;" vertex="1" parent="86"><mxGeometry y="80" width="317.24999999999955" height="24" as="geometry"/></mxCell></object><object label="%nodeDesc%" placeholders="1" nodeDesc="删除账号" shapeType="NODE" id="88"><mxCell style="rounded=0;whiteSpace=wrap;html=1;shadow=0;glass=0;sketch=0;fillStyle=auto;strokeWidth=1;metaEdit=1;resizable=1;rotatable=0;snapToPoint=0;connectable=1;absoluteArcSize=0;noLabel=0;labelPadding=0;allowArrows=1;recursiveResize=1;expand=1;editable=1;movable=1;deletable=1;fixDash=0;collapsible=0;portConstraintRotation=0;points=[[0,0.5,0,0,0],[1,0.5,0,0,0]];backgroundOutline=0;resizeHeight=1;resizeWidth=1;" vertex="1" parent="1"><mxGeometry x="117.5" y="-940" width="135" height="40" as="geometry"/></mxCell></object><object label="《%shapeType%》&#10;%className%&#10;%classDesc%" placeholders="1" shapeType="COMMAND" classPackage="delete" classDesc="删除用户账号" className="AccountDelete" cmdType="DELETE" id="89"><mxCell style="swimlane;fontStyle=1;align=center;verticalAlign=top;childLayout=stackLayout;horizontal=1;startSize=60;horizontalStack=0;resizeParent=1;resizeParentMax=0;resizeLast=0;collapsible=1;marginBottom=0;fixDash=1;container=1;enumerate=0;treeMoving=1;swimlaneBody=1;fillOpacity=100;strokeOpacity=100;overflow=visible;rounded=0;swimlaneLine=1;sketch=0;shadow=0;arcSize=9;strokeWidth=1;fillStyle=auto;swimlaneFillColor=default;metaEdit=1;labelPadding=0;cloneable=1;separatorColor=none;swimlaneHead=1;noLabel=0;direction=east;portConstraint=none;portConstraintRotation=0;rotation=0;connectable=0;snapToPoint=0;perimeter=rectanglePerimeter;dropTarget=1;expand=1;part=1;backgroundOutline=1;movableLabel=1;autosize=1;fixedWidth=1;resizable=1;resizeWidth=0;resizeHeight=0;rotatable=1;treeFolding=0;pointerEvents=1;moveCells=0;comic=0;enumerateValue=123;allowArrows=0;fontFamily=Helvetica;fontSize=13;fillColor=#fff2cc;strokeColor=#d6b656;" vertex="1" parent="1"><mxGeometry x="10" y="-870" width="350" height="194" as="geometry"><mxRectangle x="-950" y="80" width="350" height="70" as="alternateBounds"/></mxGeometry></mxCell></object><object label="%fieldModify% %fieldName%: %fieldType%    #%fieldDesc%" placeholders="1" shapeType="FIELD" fieldName="id" fieldType="Long" fieldModify="-" fieldDesc="主键" id="90"><mxCell style="text;strokeColor=none;fillColor=none;align=left;verticalAlign=top;spacingLeft=4;spacingRight=4;overflow=hidden;rotatable=0;points=[];portConstraint=none;metaEdit=1;cloneable=1;rotation=0;connectable=1;container=0;dropTarget=1;imageAspect=1;absoluteArcSize=0;portConstraintRotation=0;snapToPoint=0;fixDash=0;pointerEvents=0;enumerate=0;resizeHeight=1;resizeWidth=1;autosize=1;part=1;movable=1;rounded=0;fontFamily=Helvetica;fontSize=13;fontColor=default;" vertex="1" parent="89"><mxGeometry y="60" width="350" height="24" as="geometry"/></mxCell></object><object label="《%shapeType%》" placeholders="1" shapeType="RULE_LIST" id="91"><mxCell style="swimlane;fontStyle=1;align=center;verticalAlign=top;childLayout=stackLayout;horizontal=1;startSize=28;horizontalStack=0;resizeParent=1;resizeParentMax=0;resizeLast=0;collapsible=1;marginBottom=0;fixDash=1;container=1;enumerate=0;treeMoving=1;swimlaneBody=1;fillOpacity=100;strokeOpacity=100;overflow=visible;rounded=0;swimlaneLine=1;sketch=0;shadow=0;arcSize=19;strokeWidth=1;fillStyle=auto;swimlaneFillColor=none;metaEdit=1;labelPadding=0;cloneable=1;separatorColor=none;swimlaneHead=1;noLabel=0;direction=east;portConstraint=none;portConstraintRotation=0;rotation=0;connectable=0;snapToPoint=0;perimeter=rectanglePerimeter;dropTarget=1;expand=1;part=1;backgroundOutline=1;movableLabel=1;autosize=1;fixedWidth=0;resizable=1;resizeWidth=0;resizeHeight=0;rotatable=1;treeFolding=0;pointerEvents=1;moveCells=0;comic=0;enumerateValue=123;allowArrows=0;fontFamily=Helvetica;fontSize=13;glass=0;editable=1;movable=1;deletable=1;fillColor=none;strokeColor=#b85450;gradientColor=none;" vertex="1" parent="89"><mxGeometry y="84" width="350" height="58" as="geometry"><mxRectangle y="256" width="420" height="50" as="alternateBounds"/></mxGeometry></mxCell></object><object label="rule: %ruleDesc%" placeholders="1" shapeType="RULE_ITEM" ruleDesc="不能删除系统管理员" id="92"><mxCell style="text;strokeColor=none;fillColor=none;align=left;verticalAlign=top;spacingLeft=4;spacingRight=4;overflow=hidden;rotatable=0;points=[];portConstraint=none;metaEdit=1;cloneable=1;rotation=0;connectable=1;container=0;dropTarget=1;imageAspect=1;absoluteArcSize=0;portConstraintRotation=0;snapToPoint=0;fixDash=0;pointerEvents=0;enumerate=0;resizeHeight=1;resizeWidth=1;autosize=1;part=1;movable=1;rounded=0;fontFamily=Helvetica;fontSize=13;fontColor=default;" vertex="1" parent="91"><mxGeometry y="28" width="350" height="30" as="geometry"/></mxCell></object><object label="《%shapeType%》" placeholders="1" shapeType="EVENT" id="93"><mxCell style="swimlane;fontStyle=1;align=center;verticalAlign=top;childLayout=stackLayout;horizontal=1;startSize=28;horizontalStack=0;resizeParent=1;resizeParentMax=0;resizeLast=0;collapsible=1;marginBottom=0;fixDash=1;container=1;enumerate=0;treeMoving=1;swimlaneBody=1;fillOpacity=100;strokeOpacity=100;overflow=visible;rounded=0;swimlaneLine=1;sketch=0;shadow=0;arcSize=19;strokeWidth=1;fillStyle=auto;swimlaneFillColor=none;metaEdit=1;labelPadding=0;cloneable=1;separatorColor=none;swimlaneHead=1;noLabel=0;direction=east;portConstraint=none;portConstraintRotation=0;rotation=0;connectable=0;snapToPoint=0;perimeter=rectanglePerimeter;dropTarget=1;expand=1;part=1;backgroundOutline=1;movableLabel=1;autosize=1;fixedWidth=0;resizable=1;resizeWidth=0;resizeHeight=0;rotatable=1;treeFolding=0;pointerEvents=1;moveCells=0;comic=0;enumerateValue=123;allowArrows=0;fontFamily=Helvetica;fontSize=13;glass=0;editable=1;movable=1;deletable=1;fillColor=none;strokeColor=#6c8ebf;gradientColor=#7ea6e0;" vertex="1" parent="89"><mxGeometry y="142" width="350" height="52" as="geometry"><mxRectangle y="204" width="420" height="50" as="alternateBounds"/></mxGeometry></mxCell></object><object label="《%shapeType%》&#10;%className%&#10;%classDesc%" placeholders="1" shapeType="AGGREGATION" className="Account" classDesc="账号" id="94"><mxCell style="swimlane;fontStyle=3;align=center;verticalAlign=top;childLayout=stackLayout;horizontal=1;startSize=55;horizontalStack=0;resizeParent=1;resizeParentMax=0;resizeLast=0;collapsible=1;marginBottom=0;fixDash=1;container=1;enumerate=0;treeMoving=1;swimlaneBody=1;fillOpacity=100;strokeOpacity=100;overflow=visible;rounded=1;swimlaneLine=1;sketch=0;shadow=0;arcSize=7;fillColor=#fff2cc;strokeColor=#d6b656;strokeWidth=1;fillStyle=auto;swimlaneFillColor=default;metaEdit=1;labelPadding=0;cloneable=1;separatorColor=none;swimlaneHead=1;noLabel=0;direction=east;portConstraint=none;portConstraintRotation=0;rotation=0;connectable=1;snapToPoint=0;perimeter=rectanglePerimeter;dropTarget=1;expand=1;part=1;backgroundOutline=1;movableLabel=1;autosize=1;fixedWidth=0;resizable=1;resizeWidth=0;resizeHeight=0;rotatable=1;treeFolding=0;pointerEvents=1;moveCells=0;comic=0;enumerateValue=123;allowArrows=0;glass=0;fontFamily=Helvetica;fontSize=13;fontColor=default;" vertex="1" parent="1"><mxGeometry x="-790" y="-560" width="390" height="209" as="geometry"><mxRectangle x="70" y="410" width="250" height="50" as="alternateBounds"/></mxGeometry></mxCell></object><object label="%fieldModify% %fieldName%: %fieldType%    #%fieldDesc%" placeholders="1" shapeType="FIELD" fieldName="accountNo" fieldType="String" fieldModify="-" fieldDesc="账号" id="95"><mxCell style="text;strokeColor=none;fillColor=none;align=left;verticalAlign=top;spacingLeft=4;spacingRight=4;overflow=hidden;rotatable=0;points=[];portConstraint=none;metaEdit=1;cloneable=1;rotation=0;connectable=1;container=0;dropTarget=1;imageAspect=1;absoluteArcSize=0;portConstraintRotation=0;snapToPoint=0;fixDash=0;pointerEvents=0;enumerate=0;resizeHeight=1;resizeWidth=1;autosize=1;part=1;movable=1;rounded=0;fontFamily=Helvetica;fontSize=13;fontColor=default;" vertex="1" parent="94"><mxGeometry y="55" width="390" height="24" as="geometry"/></mxCell></object><object label="%fieldModify% %fieldName%: %fieldType%    #%fieldDesc%" placeholders="1" shapeType="FIELD" fieldName="userName" fieldType="String" fieldModify="-" fieldDesc="用户名" id="96"><mxCell style="text;strokeColor=none;fillColor=none;align=left;verticalAlign=top;spacingLeft=4;spacingRight=4;overflow=hidden;rotatable=0;points=[];portConstraint=none;metaEdit=1;cloneable=1;rotation=0;connectable=1;container=0;dropTarget=1;imageAspect=1;absoluteArcSize=0;portConstraintRotation=0;snapToPoint=0;fixDash=0;pointerEvents=0;enumerate=0;resizeHeight=1;resizeWidth=1;autosize=1;part=1;movable=1;rounded=0;fontFamily=Helvetica;fontSize=13;fontColor=default;" vertex="1" parent="94"><mxGeometry y="79" width="390" height="24" as="geometry"/></mxCell></object><object label="%fieldModify% %fieldName%: %fieldType%    #%fieldDesc%" placeholders="1" shapeType="FIELD" fieldName="password" fieldType="String" fieldModify="-" fieldDesc="密码" id="97"><mxCell style="text;strokeColor=none;fillColor=none;align=left;verticalAlign=top;spacingLeft=4;spacingRight=4;overflow=hidden;rotatable=0;points=[];portConstraint=none;metaEdit=1;cloneable=1;rotation=0;connectable=1;container=0;dropTarget=1;imageAspect=1;absoluteArcSize=0;portConstraintRotation=0;snapToPoint=0;fixDash=0;pointerEvents=0;enumerate=0;resizeHeight=1;resizeWidth=1;autosize=1;part=1;movable=1;rounded=0;fontFamily=Helvetica;fontSize=13;fontColor=default;" vertex="1" parent="94"><mxGeometry y="103" width="390" height="24" as="geometry"/></mxCell></object><object label="%fieldModify% %fieldName%: %fieldType%    #%fieldDesc%" placeholders="1" shapeType="FIELD" fieldName="description" fieldType="String" fieldModify="-" fieldDesc="描述" id="98"><mxCell style="text;strokeColor=none;fillColor=none;align=left;verticalAlign=top;spacingLeft=4;spacingRight=4;overflow=hidden;rotatable=0;points=[];portConstraint=none;metaEdit=1;cloneable=1;rotation=0;connectable=1;container=0;dropTarget=1;imageAspect=1;absoluteArcSize=0;portConstraintRotation=0;snapToPoint=0;fixDash=0;pointerEvents=0;enumerate=0;resizeHeight=1;resizeWidth=1;autosize=1;part=1;movable=1;rounded=0;fontFamily=Helvetica;fontSize=13;fontColor=default;" vertex="1" parent="94"><mxGeometry y="127" width="390" height="24" as="geometry"/></mxCell></object><object label="%fieldModify% %fieldName%: %fieldType%    #%fieldDesc%" placeholders="1" shapeType="FIELD" fieldName="position" fieldType="String" fieldModify="-" fieldDesc="职位" id="99"><mxCell style="text;strokeColor=none;fillColor=none;align=left;verticalAlign=top;spacingLeft=4;spacingRight=4;overflow=hidden;rotatable=0;points=[];portConstraint=none;metaEdit=1;cloneable=1;rotation=0;connectable=1;container=0;dropTarget=1;imageAspect=1;absoluteArcSize=0;portConstraintRotation=0;snapToPoint=0;fixDash=0;pointerEvents=0;enumerate=0;resizeHeight=1;resizeWidth=1;autosize=1;part=1;movable=1;rounded=0;fontFamily=Helvetica;fontSize=13;fontColor=default;" vertex="1" parent="94"><mxGeometry y="151" width="390" height="24" as="geometry"/></mxCell></object><mxCell id="100" value="" style="line;strokeWidth=1;fillColor=none;align=left;verticalAlign=middle;spacingTop=-1;spacingLeft=3;spacingRight=3;rotatable=0;labelPosition=right;points=[];portConstraint=eastwest;cloneable=1;rounded=0;part=1;fontFamily=Helvetica;fontSize=13;fontColor=default;" vertex="1" parent="94"><mxGeometry y="175" width="390" height="8" as="geometry"/></mxCell><object label="%methodModify% %methodName%(%methodAttr%): %methodReturn%    #%methodDesc%" shapeType="METHOD" placeholders="1" methodReturn="Boolean" methodName="isLoginPass" methodModify="+" methodDesc="验证密码是否正确" methodAttr="String accountNo, String password" id="101"><mxCell style="text;strokeColor=none;fillColor=none;align=left;verticalAlign=top;spacingLeft=4;spacingRight=4;overflow=hidden;rotatable=0;points=[[0,0.5],[1,0.5]];portConstraint=eastwest;metaEdit=1;cloneable=1;rounded=0;part=1;fontFamily=Helvetica;fontSize=13;fontColor=default;" vertex="1" parent="94"><mxGeometry y="183" width="390" height="26" as="geometry"/></mxCell></object><object label="《%shapeType%》&#10;%className%&#10;%classDesc%" placeholders="1" shapeType="QUERY_RESULT" className="AccountDTO" classDesc="账号信息" id="102"><mxCell style="swimlane;fontStyle=3;align=center;verticalAlign=top;childLayout=stackLayout;horizontal=1;startSize=55;horizontalStack=0;resizeParent=1;resizeParentMax=0;resizeLast=0;collapsible=1;marginBottom=0;fixDash=1;container=1;enumerate=0;treeMoving=1;swimlaneBody=1;fillOpacity=100;strokeOpacity=100;overflow=visible;rounded=1;swimlaneLine=1;sketch=0;shadow=0;arcSize=12;strokeWidth=1;fillStyle=auto;swimlaneFillColor=none;metaEdit=1;labelPadding=0;cloneable=1;separatorColor=none;swimlaneHead=1;noLabel=0;direction=east;portConstraint=none;portConstraintRotation=0;rotation=0;connectable=1;snapToPoint=0;perimeter=rectanglePerimeter;dropTarget=1;expand=1;part=1;backgroundOutline=1;movableLabel=1;autosize=1;fixedWidth=0;resizable=1;resizeWidth=0;resizeHeight=0;rotatable=1;treeFolding=0;pointerEvents=1;moveCells=0;comic=0;enumerateValue=123;allowArrows=0;glass=0;fontFamily=Helvetica;fontSize=13;fillColor=#fff2cc;strokeColor=#d6b656;" vertex="1" parent="1"><mxGeometry x="-790" y="90" width="330" height="175" as="geometry"><mxRectangle x="70" y="410" width="250" height="50" as="alternateBounds"/></mxGeometry></mxCell></object><object label="%fieldModify% %fieldName%: %fieldType%    #%fieldDesc%" placeholders="1" shapeType="FIELD" fieldName="id" fieldType="Long" fieldModify="-" fieldDesc="主键" id="103"><mxCell style="text;strokeColor=none;fillColor=none;align=left;verticalAlign=top;spacingLeft=4;spacingRight=4;overflow=hidden;rotatable=0;points=[];portConstraint=none;metaEdit=1;cloneable=1;rotation=0;connectable=1;container=0;dropTarget=1;imageAspect=1;absoluteArcSize=0;portConstraintRotation=0;snapToPoint=0;fixDash=0;pointerEvents=0;enumerate=0;resizeHeight=1;resizeWidth=1;autosize=1;part=1;movable=1;rounded=0;fontFamily=Helvetica;fontSize=13;fontColor=default;" vertex="1" parent="102"><mxGeometry y="55" width="330" height="24" as="geometry"/></mxCell></object><object label="%fieldModify% %fieldName%: %fieldType%    #%fieldDesc%" placeholders="1" shapeType="FIELD" fieldName="accountNo" fieldType="String" fieldModify="-" fieldDesc="账号" id="104"><mxCell style="text;strokeColor=none;fillColor=none;align=left;verticalAlign=top;spacingLeft=4;spacingRight=4;overflow=hidden;rotatable=0;points=[];portConstraint=none;metaEdit=1;cloneable=1;rotation=0;connectable=1;container=0;dropTarget=1;imageAspect=1;absoluteArcSize=0;portConstraintRotation=0;snapToPoint=0;fixDash=0;pointerEvents=0;enumerate=0;resizeHeight=1;resizeWidth=1;autosize=1;part=1;movable=1;rounded=0;fontFamily=Helvetica;fontSize=13;fontColor=default;" vertex="1" parent="102"><mxGeometry y="79" width="330" height="24" as="geometry"/></mxCell></object><object label="%fieldModify% %fieldName%: %fieldType%    #%fieldDesc%" placeholders="1" shapeType="FIELD" fieldName="userName" fieldType="String" fieldModify="-" fieldDesc="用户名" id="105"><mxCell style="text;strokeColor=none;fillColor=none;align=left;verticalAlign=top;spacingLeft=4;spacingRight=4;overflow=hidden;rotatable=0;points=[];portConstraint=none;metaEdit=1;cloneable=1;rotation=0;connectable=1;container=0;dropTarget=1;imageAspect=1;absoluteArcSize=0;portConstraintRotation=0;snapToPoint=0;fixDash=0;pointerEvents=0;enumerate=0;resizeHeight=1;resizeWidth=1;autosize=1;part=1;movable=1;rounded=0;fontFamily=Helvetica;fontSize=13;fontColor=default;" vertex="1" parent="102"><mxGeometry y="103" width="330" height="24" as="geometry"/></mxCell></object><object label="%fieldModify% %fieldName%: %fieldType%    #%fieldDesc%" placeholders="1" shapeType="FIELD" fieldName="position" fieldType="String" fieldModify="-" fieldDesc="职位" id="106"><mxCell style="text;strokeColor=none;fillColor=none;align=left;verticalAlign=top;spacingLeft=4;spacingRight=4;overflow=hidden;rotatable=0;points=[];portConstraint=none;metaEdit=1;cloneable=1;rotation=0;connectable=1;container=0;dropTarget=1;imageAspect=1;absoluteArcSize=0;portConstraintRotation=0;snapToPoint=0;fixDash=0;pointerEvents=0;enumerate=0;resizeHeight=1;resizeWidth=1;autosize=1;part=1;movable=1;rounded=0;fontFamily=Helvetica;fontSize=13;fontColor=default;" vertex="1" parent="102"><mxGeometry y="127" width="330" height="24" as="geometry"/></mxCell></object><object label="%fieldModify% %fieldName%: %fieldType%    #%fieldDesc%" placeholders="1" shapeType="FIELD" fieldName="description" fieldType="String" fieldModify="-" fieldDesc="描述" id="107"><mxCell style="text;strokeColor=none;fillColor=none;align=left;verticalAlign=top;spacingLeft=4;spacingRight=4;overflow=hidden;rotatable=0;points=[];portConstraint=none;metaEdit=1;cloneable=1;rotation=0;connectable=1;container=0;dropTarget=1;imageAspect=1;absoluteArcSize=0;portConstraintRotation=0;snapToPoint=0;fixDash=0;pointerEvents=0;enumerate=0;resizeHeight=1;resizeWidth=1;autosize=1;part=1;movable=1;rounded=0;fontFamily=Helvetica;fontSize=13;fontColor=default;" vertex="1" parent="102"><mxGeometry y="151" width="330" height="24" as="geometry"/></mxCell></object><object label="《%shapeType%》&#10;%className%&#10;%classDesc%" placeholders="1" shapeType="COMMAND" classPackage="login" classDesc="账号登录" className="AccountLogin" cmdType="" id="108"><mxCell style="swimlane;fontStyle=1;align=center;verticalAlign=top;childLayout=stackLayout;horizontal=1;startSize=60;horizontalStack=0;resizeParent=1;resizeParentMax=0;resizeLast=0;collapsible=1;marginBottom=0;fixDash=1;container=1;enumerate=0;treeMoving=1;swimlaneBody=1;fillOpacity=100;strokeOpacity=100;overflow=visible;rounded=0;swimlaneLine=1;sketch=0;shadow=0;arcSize=9;strokeWidth=1;fillStyle=auto;swimlaneFillColor=default;metaEdit=1;labelPadding=0;cloneable=1;separatorColor=none;swimlaneHead=1;noLabel=0;direction=east;portConstraint=none;portConstraintRotation=0;rotation=0;connectable=0;snapToPoint=0;perimeter=rectanglePerimeter;dropTarget=1;expand=1;part=1;backgroundOutline=1;movableLabel=1;autosize=1;fixedWidth=1;resizable=1;resizeWidth=0;resizeHeight=0;rotatable=1;treeFolding=0;pointerEvents=1;moveCells=0;comic=0;enumerateValue=123;allowArrows=0;fontFamily=Helvetica;fontSize=13;fillColor=#fff2cc;strokeColor=#d6b656;" vertex="1" parent="1"><mxGeometry x="770" y="-870" width="350" height="218" as="geometry"><mxRectangle x="-950" y="80" width="350" height="70" as="alternateBounds"/></mxGeometry></mxCell></object><object label="%fieldModify% %fieldName%: %fieldType%    #%fieldDesc%" placeholders="1" shapeType="FIELD" fieldName="accountNo" fieldType="String" fieldModify="-" fieldDesc="账号" id="109"><mxCell style="text;strokeColor=none;fillColor=none;align=left;verticalAlign=top;spacingLeft=4;spacingRight=4;overflow=hidden;rotatable=0;points=[];portConstraint=none;metaEdit=1;cloneable=1;rotation=0;connectable=1;container=0;dropTarget=1;imageAspect=1;absoluteArcSize=0;portConstraintRotation=0;snapToPoint=0;fixDash=0;pointerEvents=0;enumerate=0;resizeHeight=1;resizeWidth=1;autosize=1;part=1;movable=1;rounded=0;fontFamily=Helvetica;fontSize=13;fontColor=default;" vertex="1" parent="108"><mxGeometry y="60" width="350" height="24" as="geometry"/></mxCell></object><object label="%fieldModify% %fieldName%: %fieldType%    #%fieldDesc%" placeholders="1" shapeType="FIELD" fieldName="password" fieldType="String" fieldModify="-" fieldDesc="密码" id="110"><mxCell style="text;strokeColor=none;fillColor=none;align=left;verticalAlign=top;spacingLeft=4;spacingRight=4;overflow=hidden;rotatable=0;points=[];portConstraint=none;metaEdit=1;cloneable=1;rotation=0;connectable=1;container=0;dropTarget=1;imageAspect=1;absoluteArcSize=0;portConstraintRotation=0;snapToPoint=0;fixDash=0;pointerEvents=0;enumerate=0;resizeHeight=1;resizeWidth=1;autosize=1;part=1;movable=1;rounded=0;fontFamily=Helvetica;fontSize=13;fontColor=default;" vertex="1" parent="108"><mxGeometry y="84" width="350" height="24" as="geometry"/></mxCell></object><object label="《%shapeType%》" placeholders="1" shapeType="RULE_LIST" id="111"><mxCell style="swimlane;fontStyle=1;align=center;verticalAlign=top;childLayout=stackLayout;horizontal=1;startSize=28;horizontalStack=0;resizeParent=1;resizeParentMax=0;resizeLast=0;collapsible=1;marginBottom=0;fixDash=1;container=1;enumerate=0;treeMoving=1;swimlaneBody=1;fillOpacity=100;strokeOpacity=100;overflow=visible;rounded=0;swimlaneLine=1;sketch=0;shadow=0;arcSize=19;strokeWidth=1;fillStyle=auto;swimlaneFillColor=none;metaEdit=1;labelPadding=0;cloneable=1;separatorColor=none;swimlaneHead=1;noLabel=0;direction=east;portConstraint=none;portConstraintRotation=0;rotation=0;connectable=0;snapToPoint=0;perimeter=rectanglePerimeter;dropTarget=1;expand=1;part=1;backgroundOutline=1;movableLabel=1;autosize=1;fixedWidth=0;resizable=1;resizeWidth=0;resizeHeight=0;rotatable=1;treeFolding=0;pointerEvents=1;moveCells=0;comic=0;enumerateValue=123;allowArrows=0;fontFamily=Helvetica;fontSize=13;glass=0;editable=1;movable=1;deletable=1;fillColor=none;strokeColor=#b85450;gradientColor=none;" vertex="1" parent="108"><mxGeometry y="108" width="350" height="58" as="geometry"><mxRectangle y="256" width="420" height="50" as="alternateBounds"/></mxGeometry></mxCell></object><object label="rule: %ruleDesc%" placeholders="1" shapeType="RULE_ITEM" ruleDesc="验证密码是否正确" id="112"><mxCell style="text;strokeColor=none;fillColor=none;align=left;verticalAlign=top;spacingLeft=4;spacingRight=4;overflow=hidden;rotatable=0;points=[];portConstraint=none;metaEdit=1;cloneable=1;rotation=0;connectable=1;container=0;dropTarget=1;imageAspect=1;absoluteArcSize=0;portConstraintRotation=0;snapToPoint=0;fixDash=0;pointerEvents=0;enumerate=0;resizeHeight=1;resizeWidth=1;autosize=1;part=1;movable=1;rounded=0;fontFamily=Helvetica;fontSize=13;fontColor=default;" vertex="1" parent="111"><mxGeometry y="28" width="350" height="30" as="geometry"/></mxCell></object><object label="《%shapeType%》" placeholders="1" shapeType="EVENT" id="113"><mxCell style="swimlane;fontStyle=1;align=center;verticalAlign=top;childLayout=stackLayout;horizontal=1;startSize=28;horizontalStack=0;resizeParent=1;resizeParentMax=0;resizeLast=0;collapsible=1;marginBottom=0;fixDash=1;container=1;enumerate=0;treeMoving=1;swimlaneBody=1;fillOpacity=100;strokeOpacity=100;overflow=visible;rounded=0;swimlaneLine=1;sketch=0;shadow=0;arcSize=19;strokeWidth=1;fillStyle=auto;swimlaneFillColor=none;metaEdit=1;labelPadding=0;cloneable=1;separatorColor=none;swimlaneHead=1;noLabel=0;direction=east;portConstraint=none;portConstraintRotation=0;rotation=0;connectable=0;snapToPoint=0;perimeter=rectanglePerimeter;dropTarget=1;expand=1;part=1;backgroundOutline=1;movableLabel=1;autosize=1;fixedWidth=0;resizable=1;resizeWidth=0;resizeHeight=0;rotatable=1;treeFolding=0;pointerEvents=1;moveCells=0;comic=0;enumerateValue=123;allowArrows=0;fontFamily=Helvetica;fontSize=13;glass=0;editable=1;movable=1;deletable=1;fillColor=none;strokeColor=#6c8ebf;gradientColor=#7ea6e0;" vertex="1" parent="108"><mxGeometry y="166" width="350" height="52" as="geometry"><mxRectangle y="204" width="420" height="50" as="alternateBounds"/></mxGeometry></mxCell></object><object label="《%shapeType%》&#10;%className%&#10;%classDesc%" placeholders="1" shapeType="COMMAND" classPackage="password.reset" classDesc="重置用户密码" className="AccountPasswordReset" cmdType="UPDATE" id="114"><mxCell style="swimlane;fontStyle=1;align=center;verticalAlign=top;childLayout=stackLayout;horizontal=1;startSize=60;horizontalStack=0;resizeParent=1;resizeParentMax=0;resizeLast=0;collapsible=1;marginBottom=0;fixDash=1;container=1;enumerate=0;treeMoving=1;swimlaneBody=1;fillOpacity=100;strokeOpacity=100;overflow=visible;rounded=0;swimlaneLine=1;sketch=0;shadow=0;arcSize=9;strokeWidth=1;fillStyle=auto;swimlaneFillColor=default;metaEdit=1;labelPadding=0;cloneable=1;separatorColor=none;swimlaneHead=1;noLabel=0;direction=east;portConstraint=none;portConstraintRotation=0;rotation=0;connectable=0;snapToPoint=0;perimeter=rectanglePerimeter;dropTarget=1;expand=1;part=1;backgroundOutline=1;movableLabel=1;autosize=1;fixedWidth=1;resizable=1;resizeWidth=0;resizeHeight=0;rotatable=1;treeFolding=0;pointerEvents=1;moveCells=0;comic=0;enumerateValue=123;allowArrows=0;fontFamily=Helvetica;fontSize=13;fillColor=#fff2cc;strokeColor=#d6b656;" vertex="1" parent="1"><mxGeometry x="1150" y="-870" width="350" height="242" as="geometry"><mxRectangle x="-950" y="80" width="350" height="70" as="alternateBounds"/></mxGeometry></mxCell></object><object label="%fieldModify% %fieldName%: %fieldType%    #%fieldDesc%" placeholders="1" shapeType="FIELD" fieldName="id" fieldType="Long" fieldModify="-" fieldDesc="主键" id="115"><mxCell style="text;strokeColor=none;fillColor=none;align=left;verticalAlign=top;spacingLeft=4;spacingRight=4;overflow=hidden;rotatable=0;points=[];portConstraint=none;metaEdit=1;cloneable=1;rotation=0;connectable=1;container=0;dropTarget=1;imageAspect=1;absoluteArcSize=0;portConstraintRotation=0;snapToPoint=0;fixDash=0;pointerEvents=0;enumerate=0;resizeHeight=1;resizeWidth=1;autosize=1;part=1;movable=1;rounded=0;fontFamily=Helvetica;fontSize=13;fontColor=default;" vertex="1" parent="114"><mxGeometry y="60" width="350" height="24" as="geometry"/></mxCell></object><object label="%fieldModify% %fieldName%: %fieldType%    #%fieldDesc%" placeholders="1" shapeType="FIELD" fieldName="oldPassword" fieldType="String" fieldModify="-" fieldDesc="旧密码" id="116"><mxCell style="text;strokeColor=none;fillColor=none;align=left;verticalAlign=top;spacingLeft=4;spacingRight=4;overflow=hidden;rotatable=0;points=[];portConstraint=none;metaEdit=1;cloneable=1;rotation=0;connectable=1;container=0;dropTarget=1;imageAspect=1;absoluteArcSize=0;portConstraintRotation=0;snapToPoint=0;fixDash=0;pointerEvents=0;enumerate=0;resizeHeight=1;resizeWidth=1;autosize=1;part=1;movable=1;rounded=0;fontFamily=Helvetica;fontSize=13;fontColor=default;" vertex="1" parent="114"><mxGeometry y="84" width="350" height="24" as="geometry"/></mxCell></object><object label="%fieldModify% %fieldName%: %fieldType%    #%fieldDesc%" placeholders="1" shapeType="FIELD" fieldName="newPassword" fieldType="String" fieldModify="-" fieldDesc="新密码" id="117"><mxCell style="text;strokeColor=none;fillColor=none;align=left;verticalAlign=top;spacingLeft=4;spacingRight=4;overflow=hidden;rotatable=0;points=[];portConstraint=none;metaEdit=1;cloneable=1;rotation=0;connectable=1;container=0;dropTarget=1;imageAspect=1;absoluteArcSize=0;portConstraintRotation=0;snapToPoint=0;fixDash=0;pointerEvents=0;enumerate=0;resizeHeight=1;resizeWidth=1;autosize=1;part=1;movable=1;rounded=0;fontFamily=Helvetica;fontSize=13;fontColor=default;" vertex="1" parent="114"><mxGeometry y="108" width="350" height="24" as="geometry"/></mxCell></object><object label="《%shapeType%》" placeholders="1" shapeType="RULE_LIST" id="118"><mxCell style="swimlane;fontStyle=1;align=center;verticalAlign=top;childLayout=stackLayout;horizontal=1;startSize=28;horizontalStack=0;resizeParent=1;resizeParentMax=0;resizeLast=0;collapsible=1;marginBottom=0;fixDash=1;container=1;enumerate=0;treeMoving=1;swimlaneBody=1;fillOpacity=100;strokeOpacity=100;overflow=visible;rounded=0;swimlaneLine=1;sketch=0;shadow=0;arcSize=19;strokeWidth=1;fillStyle=auto;swimlaneFillColor=none;metaEdit=1;labelPadding=0;cloneable=1;separatorColor=none;swimlaneHead=1;noLabel=0;direction=east;portConstraint=none;portConstraintRotation=0;rotation=0;connectable=0;snapToPoint=0;perimeter=rectanglePerimeter;dropTarget=1;expand=1;part=1;backgroundOutline=1;movableLabel=1;autosize=1;fixedWidth=0;resizable=1;resizeWidth=0;resizeHeight=0;rotatable=1;treeFolding=0;pointerEvents=1;moveCells=0;comic=0;enumerateValue=123;allowArrows=0;fontFamily=Helvetica;fontSize=13;glass=0;editable=1;movable=1;deletable=1;fillColor=none;strokeColor=#b85450;gradientColor=none;" vertex="1" parent="114"><mxGeometry y="132" width="350" height="58" as="geometry"><mxRectangle y="256" width="420" height="50" as="alternateBounds"/></mxGeometry></mxCell></object><object label="rule: %ruleDesc%" placeholders="1" shapeType="RULE_ITEM" ruleDesc="验证密码是否正确" id="119"><mxCell style="text;strokeColor=none;fillColor=none;align=left;verticalAlign=top;spacingLeft=4;spacingRight=4;overflow=hidden;rotatable=0;points=[];portConstraint=none;metaEdit=1;cloneable=1;rotation=0;connectable=1;container=0;dropTarget=1;imageAspect=1;absoluteArcSize=0;portConstraintRotation=0;snapToPoint=0;fixDash=0;pointerEvents=0;enumerate=0;resizeHeight=1;resizeWidth=1;autosize=1;part=1;movable=1;rounded=0;fontFamily=Helvetica;fontSize=13;fontColor=default;" vertex="1" parent="118"><mxGeometry y="28" width="350" height="30" as="geometry"/></mxCell></object><object label="《%shapeType%》" placeholders="1" shapeType="EVENT" id="120"><mxCell style="swimlane;fontStyle=1;align=center;verticalAlign=top;childLayout=stackLayout;horizontal=1;startSize=28;horizontalStack=0;resizeParent=1;resizeParentMax=0;resizeLast=0;collapsible=1;marginBottom=0;fixDash=1;container=1;enumerate=0;treeMoving=1;swimlaneBody=1;fillOpacity=100;strokeOpacity=100;overflow=visible;rounded=0;swimlaneLine=1;sketch=0;shadow=0;arcSize=19;strokeWidth=1;fillStyle=auto;swimlaneFillColor=none;metaEdit=1;labelPadding=0;cloneable=1;separatorColor=none;swimlaneHead=1;noLabel=0;direction=east;portConstraint=none;portConstraintRotation=0;rotation=0;connectable=0;snapToPoint=0;perimeter=rectanglePerimeter;dropTarget=1;expand=1;part=1;backgroundOutline=1;movableLabel=1;autosize=1;fixedWidth=0;resizable=1;resizeWidth=0;resizeHeight=0;rotatable=1;treeFolding=0;pointerEvents=1;moveCells=0;comic=0;enumerateValue=123;allowArrows=0;fontFamily=Helvetica;fontSize=13;glass=0;editable=1;movable=1;deletable=1;fillColor=none;strokeColor=#6c8ebf;gradientColor=#7ea6e0;" vertex="1" parent="114"><mxGeometry y="190" width="350" height="52" as="geometry"><mxRectangle y="204" width="420" height="50" as="alternateBounds"/></mxGeometry></mxCell></object><object label="%nodeDesc%" placeholders="1" nodeDesc="查询账号信息" shapeType="NODE" id="121"><mxCell style="rounded=0;whiteSpace=wrap;html=1;shadow=0;glass=0;sketch=0;fillStyle=auto;strokeWidth=1;metaEdit=1;resizable=1;rotatable=0;snapToPoint=0;connectable=1;absoluteArcSize=0;noLabel=0;labelPadding=0;allowArrows=1;recursiveResize=1;expand=1;editable=1;movable=1;deletable=1;fixDash=0;collapsible=0;portConstraintRotation=0;points=[[0,0.5,0,0,0],[1,0.5,0,0,0]];backgroundOutline=0;resizeHeight=1;resizeWidth=1;" vertex="1" parent="1"><mxGeometry x="-717.5" y="-230" width="135" height="40" as="geometry"/></mxCell></object><object label="《%shapeType%》&#10;%className%&#10;%classDesc%&#10;%queryResultType%" placeholders="1" shapeType="QUERY" className="AccountDetailQuery" queryResultType="AccountDTO" classDesc="查询用户账号信息详情" id="122"><mxCell style="swimlane;fontStyle=1;align=center;verticalAlign=top;childLayout=stackLayout;horizontal=1;startSize=70;horizontalStack=0;resizeParent=1;resizeParentMax=0;resizeLast=0;collapsible=1;marginBottom=0;fixDash=1;container=1;enumerate=0;treeMoving=1;swimlaneBody=1;fillOpacity=100;strokeOpacity=100;overflow=visible;rounded=0;swimlaneLine=1;sketch=0;shadow=0;arcSize=2;strokeWidth=1;fillStyle=auto;swimlaneFillColor=none;metaEdit=1;labelPadding=0;cloneable=1;separatorColor=none;swimlaneHead=1;noLabel=0;direction=east;portConstraint=none;portConstraintRotation=0;rotation=0;connectable=1;snapToPoint=0;perimeter=rectanglePerimeter;dropTarget=1;expand=1;part=1;backgroundOutline=1;movableLabel=1;autosize=1;fixedWidth=0;resizable=1;resizeWidth=0;resizeHeight=0;rotatable=1;treeFolding=0;pointerEvents=1;moveCells=0;comic=0;enumerateValue=123;allowArrows=0;fontFamily=Helvetica;fontSize=13;fillColor=#fff2cc;strokeColor=#d6b656;" vertex="1" parent="1"><mxGeometry x="-789.9999999999995" y="-130" width="280" height="94" as="geometry"><mxRectangle y="28" width="250" height="50" as="alternateBounds"/></mxGeometry></mxCell></object><object label="%fieldModify% %fieldName%: %fieldType%    #%fieldDesc%" placeholders="1" shapeType="FIELD" fieldName="id" fieldType="Long" fieldModify="-" fieldDesc="主键" id="123"><mxCell style="text;strokeColor=none;fillColor=none;align=left;verticalAlign=top;spacingLeft=4;spacingRight=4;overflow=hidden;rotatable=0;points=[];portConstraint=none;metaEdit=1;cloneable=1;rotation=0;connectable=1;container=0;dropTarget=1;imageAspect=1;absoluteArcSize=0;portConstraintRotation=0;snapToPoint=0;fixDash=0;pointerEvents=0;enumerate=0;resizeHeight=1;resizeWidth=1;autosize=1;part=1;movable=1;rounded=0;fontFamily=Helvetica;fontSize=13;fontColor=default;" vertex="1" parent="122"><mxGeometry y="70" width="280" height="24" as="geometry"/></mxCell></object><object label="%nodeDesc%" placeholders="1" nodeDesc="找回密码" shapeType="NODE" id="124"><mxCell style="rounded=0;whiteSpace=wrap;html=1;shadow=0;glass=0;sketch=0;fillStyle=auto;strokeWidth=1;metaEdit=1;resizable=1;rotatable=0;snapToPoint=0;connectable=1;absoluteArcSize=0;noLabel=0;labelPadding=0;allowArrows=1;recursiveResize=1;expand=1;editable=1;movable=1;deletable=1;fixDash=0;collapsible=0;portConstraintRotation=0;points=[[0,0.5,0,0,0],[1,0.5,0,0,0]];backgroundOutline=0;resizeHeight=1;resizeWidth=1;" vertex="1" parent="1"><mxGeometry x="497.5" y="-940" width="135" height="40" as="geometry"/></mxCell></object><object label="《%shapeType%》&#10;%className%&#10;%classDesc%" placeholders="1" shapeType="COMMAND" classPackage="password.retrieve" classDesc="找回密码" className="AccountPasswordRetrieve" cmdType="DELETE" id="125"><mxCell style="swimlane;fontStyle=1;align=center;verticalAlign=top;childLayout=stackLayout;horizontal=1;startSize=60;horizontalStack=0;resizeParent=1;resizeParentMax=0;resizeLast=0;collapsible=1;marginBottom=0;fixDash=1;container=1;enumerate=0;treeMoving=1;swimlaneBody=1;fillOpacity=100;strokeOpacity=100;overflow=visible;rounded=0;swimlaneLine=1;sketch=0;shadow=0;arcSize=9;strokeWidth=1;fillStyle=auto;swimlaneFillColor=default;metaEdit=1;labelPadding=0;cloneable=1;separatorColor=none;swimlaneHead=1;noLabel=0;direction=east;portConstraint=none;portConstraintRotation=0;rotation=0;connectable=0;snapToPoint=0;perimeter=rectanglePerimeter;dropTarget=1;expand=1;part=1;backgroundOutline=1;movableLabel=1;autosize=1;fixedWidth=1;resizable=1;resizeWidth=0;resizeHeight=0;rotatable=1;treeFolding=0;pointerEvents=1;moveCells=0;comic=0;enumerateValue=123;allowArrows=0;fontFamily=Helvetica;fontSize=13;fillColor=#fff2cc;strokeColor=#d6b656;" vertex="1" parent="1"><mxGeometry x="390" y="-870" width="350" height="194" as="geometry"><mxRectangle x="-950" y="80" width="350" height="70" as="alternateBounds"/></mxGeometry></mxCell></object><object label="%fieldModify% %fieldName%: %fieldType%    #%fieldDesc%" placeholders="1" shapeType="FIELD" fieldName="accountNo" fieldType="String" fieldModify="-" fieldDesc="账号" id="126"><mxCell style="text;strokeColor=none;fillColor=none;align=left;verticalAlign=top;spacingLeft=4;spacingRight=4;overflow=hidden;rotatable=0;points=[];portConstraint=none;metaEdit=1;cloneable=1;rotation=0;connectable=1;container=0;dropTarget=1;imageAspect=1;absoluteArcSize=0;portConstraintRotation=0;snapToPoint=0;fixDash=0;pointerEvents=0;enumerate=0;resizeHeight=1;resizeWidth=1;autosize=1;part=1;movable=1;rounded=0;fontFamily=Helvetica;fontSize=13;fontColor=default;" vertex="1" parent="125"><mxGeometry y="60" width="350" height="24" as="geometry"/></mxCell></object><object label="《%shapeType%》" placeholders="1" shapeType="RULE_LIST" id="127"><mxCell style="swimlane;fontStyle=1;align=center;verticalAlign=top;childLayout=stackLayout;horizontal=1;startSize=28;horizontalStack=0;resizeParent=1;resizeParentMax=0;resizeLast=0;collapsible=1;marginBottom=0;fixDash=1;container=1;enumerate=0;treeMoving=1;swimlaneBody=1;fillOpacity=100;strokeOpacity=100;overflow=visible;rounded=0;swimlaneLine=1;sketch=0;shadow=0;arcSize=19;strokeWidth=1;fillStyle=auto;swimlaneFillColor=none;metaEdit=1;labelPadding=0;cloneable=1;separatorColor=none;swimlaneHead=1;noLabel=0;direction=east;portConstraint=none;portConstraintRotation=0;rotation=0;connectable=0;snapToPoint=0;perimeter=rectanglePerimeter;dropTarget=1;expand=1;part=1;backgroundOutline=1;movableLabel=1;autosize=1;fixedWidth=0;resizable=1;resizeWidth=0;resizeHeight=0;rotatable=1;treeFolding=0;pointerEvents=1;moveCells=0;comic=0;enumerateValue=123;allowArrows=0;fontFamily=Helvetica;fontSize=13;glass=0;editable=1;movable=1;deletable=1;fillColor=none;strokeColor=#b85450;gradientColor=none;" vertex="1" parent="125"><mxGeometry y="84" width="350" height="58" as="geometry"><mxRectangle y="256" width="420" height="50" as="alternateBounds"/></mxGeometry></mxCell></object><object label="rule: %ruleDesc%" placeholders="1" shapeType="RULE_ITEM" ruleDesc="发送邮件到对应的账号邮箱" id="128"><mxCell style="text;strokeColor=none;fillColor=none;align=left;verticalAlign=top;spacingLeft=4;spacingRight=4;overflow=hidden;rotatable=0;points=[];portConstraint=none;metaEdit=1;cloneable=1;rotation=0;connectable=1;container=0;dropTarget=1;imageAspect=1;absoluteArcSize=0;portConstraintRotation=0;snapToPoint=0;fixDash=0;pointerEvents=0;enumerate=0;resizeHeight=1;resizeWidth=1;autosize=1;part=1;movable=1;rounded=0;fontFamily=Helvetica;fontSize=13;fontColor=default;" vertex="1" parent="127"><mxGeometry y="28" width="350" height="30" as="geometry"/></mxCell></object><object label="《%shapeType%》" placeholders="1" shapeType="EVENT" id="129"><mxCell style="swimlane;fontStyle=1;align=center;verticalAlign=top;childLayout=stackLayout;horizontal=1;startSize=28;horizontalStack=0;resizeParent=1;resizeParentMax=0;resizeLast=0;collapsible=1;marginBottom=0;fixDash=1;container=1;enumerate=0;treeMoving=1;swimlaneBody=1;fillOpacity=100;strokeOpacity=100;overflow=visible;rounded=0;swimlaneLine=1;sketch=0;shadow=0;arcSize=19;strokeWidth=1;fillStyle=auto;swimlaneFillColor=none;metaEdit=1;labelPadding=0;cloneable=1;separatorColor=none;swimlaneHead=1;noLabel=0;direction=east;portConstraint=none;portConstraintRotation=0;rotation=0;connectable=0;snapToPoint=0;perimeter=rectanglePerimeter;dropTarget=1;expand=1;part=1;backgroundOutline=1;movableLabel=1;autosize=1;fixedWidth=0;resizable=1;resizeWidth=0;resizeHeight=0;rotatable=1;treeFolding=0;pointerEvents=1;moveCells=0;comic=0;enumerateValue=123;allowArrows=0;fontFamily=Helvetica;fontSize=13;glass=0;editable=1;movable=1;deletable=1;fillColor=none;strokeColor=#6c8ebf;gradientColor=#7ea6e0;" vertex="1" parent="125"><mxGeometry y="142" width="350" height="52" as="geometry"><mxRectangle y="204" width="420" height="50" as="alternateBounds"/></mxGeometry></mxCell></object></root></mxGraphModel></diagram></mxfile>